<svg xmlns="http://www.w3.org/2000/svg" width="50" height="50" fill="curentColor">
  <path d="M25 2C12.31 2 2 12.31 2 25s10.31 23 23 23 23-10.31 23-23S37.69 2 25 2zm0 2c11.61 0 21 9.39 21 21s-9.39 21-21 21S4 36.61 4 25 13.39 4 25 4zm1.58 6c-2.652 0-4.663.867-5.902 2.4C19.438 13.934 19 15.981 19 18.227V20h-2a1 1 0 0 0-1 1v5a1 1 0 0 0 1 1h2v12a1 1 0 0 0 1 1h6a1 1 0 0 0 1-1V27h4a1 1 0 0 0 .98-.805l1-5A1 1 0 0 0 32 20h-5v-2.193c0-.485.031-.481.172-.573.14-.09.648-.234 1.539-.234H32a1 1 0 0 0 1-1v-4a1 1 0 0 0-.664-.941S29.456 10 26.58 10zm0 2c1.892 0 3.648.51 4.42.752V15h-2.29c-1.046 0-1.896.085-2.626.559-.73.474-1.084 1.382-1.084 2.248V21a1 1 0 0 0 1 1h4.78l-.6 3H26a1 1 0 0 0-1 1v12h-4V26a1 1 0 0 0-1-1h-2v-3h2a1 1 0 0 0 1-1v-2.773c0-1.98.405-3.545 1.232-4.569C23.06 12.635 24.337 12 26.58 12z"/>
</svg>
